<svg xmlns="http://www.w3.org/2000/svg" viewBox="0 0 32 40" x="0px" y="0px"><title>04</title><g data-name="04"><path d="M20.44,5H15.56a7.57,7.57,0,0,0-7,4.61,1.05,1.05,0,0,0-.47,0c-2.84.54-4.13,3.48-4.13,6V27a1,1,0,0,0,.52.88A1,1,0,0,0,5,28a1,1,0,0,0,.55-.16L8.36,26h8.08a5.76,5.76,0,0,0,5-3h2.18l2.81,1.84A1,1,0,0,0,27,25a1,1,0,0,0,.48-.12A1,1,0,0,0,28,24V12.56A7.57,7.57,0,0,0,20.44,5Zm-4,19H8.06a1.07,1.07,0,0,0-.55.16L6,25.15V15.56c0-1.3.57-3.26,2.05-3.86a8.11,8.11,0,0,0-.05.86v2.88A7.57,7.57,0,0,0,15.56,23H19A4.23,4.23,0,0,1,16.44,24ZM26,22.15l-1.51-1a1.1,1.1,0,0,0-.55-.16H15.56A5.57,5.57,0,0,1,10,15.44V12.56A5.57,5.57,0,0,1,15.56,7h4.88A5.57,5.57,0,0,1,26,12.56ZM23.5,16a1,1,0,0,1-1,1h-9a1,1,0,0,1,0-2h9A1,1,0,0,1,23.5,16Zm0-4a1,1,0,0,1-1,1h-9a1,1,0,0,1,0-2h9A1,1,0,0,1,23.5,12Z"/></g><text x="0" y="47" fill="#000000" font-size="5px" font-weight="bold" font-family="'Helvetica Neue', Helvetica, Arial-Unicode, Arial, Sans-serif">Created by inkajaba</text><text x="0" y="52" fill="#000000" font-size="5px" font-weight="bold" font-family="'Helvetica Neue', Helvetica, Arial-Unicode, Arial, Sans-serif">from the Noun Project</text></svg>