<?xml version="1.0" encoding="UTF-8" standalone="no"?>
<svg
   xmlns:dc="http://purl.org/dc/elements/1.1/"
   xmlns:cc="http://creativecommons.org/ns#"
   xmlns:rdf="http://www.w3.org/1999/02/22-rdf-syntax-ns#"
   xmlns:svg="http://www.w3.org/2000/svg"
   xmlns="http://www.w3.org/2000/svg"
   xmlns:sodipodi="http://sodipodi.sourceforge.net/DTD/sodipodi-0.dtd"
   xmlns:inkscape="http://www.inkscape.org/namespaces/inkscape"
   version="1.1"
   x="0px"
   y="0px"
   viewBox="0 0 100 125"
   enable-background="new 0 0 100 100"
   xml:space="preserve"
   id="svg18"
   sodipodi:docname="noun_Money_963406.svg"
   inkscape:version="1.0.2 (e86c8708, 2021-01-15)"><metadata
     id="metadata24"><rdf:RDF><cc:Work
         rdf:about=""><dc:format>image/svg+xml</dc:format><dc:type
           rdf:resource="http://purl.org/dc/dcmitype/StillImage" /></cc:Work></rdf:RDF></metadata><defs
     id="defs22" /><sodipodi:namedview
     pagecolor="#ffffff"
     bordercolor="#666666"
     borderopacity="1"
     objecttolerance="10"
     gridtolerance="10"
     guidetolerance="10"
     inkscape:pageopacity="0"
     inkscape:pageshadow="2"
     inkscape:window-width="1049"
     inkscape:window-height="782"
     id="namedview20"
     showgrid="false"
     inkscape:zoom="5.88"
     inkscape:cx="50"
     inkscape:cy="99.589836"
     inkscape:window-x="143"
     inkscape:window-y="42"
     inkscape:window-maximized="0"
     inkscape:current-layer="svg18" /><path
     d="M49.999,3.736C24.49,3.736,3.736,24.49,3.736,50.001c0,25.509,20.754,46.263,46.263,46.263  c25.511,0,46.265-20.754,46.265-46.263C96.264,24.49,75.51,3.736,49.999,3.736z M49.999,88.273  c-21.104,0-38.274-17.168-38.274-38.272c0-21.105,17.17-38.275,38.274-38.275c21.104,0,38.275,17.17,38.275,38.275  C88.274,71.105,71.104,88.273,49.999,88.273z"
     id="path10" /><path
     d="M50.14,35.354c3.715,0,6.854,2.453,6.854,5.358c0,2.207,1.788,3.995,3.994,3.995c2.208,0,3.996-1.788,3.996-3.995  c0-6.114-4.602-11.269-10.849-12.844v-5.25c0-2.207-1.789-3.995-3.995-3.995c-2.207,0-3.995,1.788-3.995,3.995v5.25  c-6.249,1.575-10.848,6.729-10.848,12.844c0,7.204,6.385,13.078,14.332,13.322c0.078,0.004,0.152,0.023,0.23,0.023  c3.778,0,6.853,2.4,6.853,5.355c0,2.9-3.138,5.354-6.853,5.354c-3.714,0-6.854-2.453-6.854-5.354c0-2.209-1.788-3.996-3.995-3.996  s-3.995,1.787-3.995,3.996c0,6.201,4.74,11.414,11.128,12.902v3.832c0,2.207,1.788,3.996,3.995,3.996  c2.206,0,3.995-1.789,3.995-3.996v-3.961c6.105-1.656,10.567-6.754,10.567-12.773c0-7.205-6.386-13.077-14.333-13.321  c-0.077-0.004-0.15-0.024-0.229-0.024c-3.716,0-6.854-2.453-6.854-5.356C43.286,37.808,46.424,35.354,50.14,35.354z"
     id="path12" /></svg>
